<mxfile host="app.diagrams.net" modified="2024-05-27T11:57:33.118Z" agent="Mozilla/5.0 (Windows NT 10.0; Win64; x64) AppleWebKit/537.36 (KHTML, like Gecko) Chrome/121.0.0.0 Safari/537.36" version="24.4.8" etag="laBO2cSv0k08uXzuOPBE" type="device">
  <diagram id="bUMfZsm-4b-yFXfC7HMP" name="PÃ¡gina-1">
    <mxGraphModel dx="1434" dy="782" grid="1" gridSize="10" guides="1" tooltips="1" connect="1" arrows="1" fold="1" page="1" pageScale="1" pageWidth="827" pageHeight="1169" math="0" shadow="0">
      <root>
        <mxCell id="0" />
        <mxCell id="1" parent="0" />
        <mxCell id="TkU13Esd5rK07mhHMYOw-12" value="" style="rounded=0;whiteSpace=wrap;html=1;fillColor=#647687;strokeColor=#000000;fontColor=#ffffff;strokeWidth=4;" vertex="1" parent="1">
          <mxGeometry x="40" y="40" width="270" height="400" as="geometry" />
        </mxCell>
        <mxCell id="TkU13Esd5rK07mhHMYOw-13" value="" style="shape=image;verticalLabelPosition=bottom;labelBackgroundColor=default;verticalAlign=top;aspect=fixed;imageAspect=0;image=data:image/png,iVBORw0KGgoAAAANSUhEUgAAAWgAAAFoCAYAAAB65WHVAAAAAXNSR0IArs4c6QAAIABJREFUeF7tnQmYZFd13+/bat+Xrt5m1TBaRmC0IMXGbDZGtkVswBG2YiAGHPLZTli8sBkjggMhCBwEhGBWI8DBcQADNsTGWIjFBmMWg2RtaHqWnt6quvbt7eH/et4wKNKsr7pfVf3f981XPT31zrv3d+/869S5554rCV4kQAIkQAKhJCCFslVsFAmQAAmQgKBAcxKQAAmQQEgJUKBDOjBsFgmQAAlQoDkHSIAESCCkBCjQIR0YNosESIAEKNCcAyRAAiQQUgIU6JAODJtFAiRAAhRozgESIAESCCkBCnRIB4bNIgESIAEKNOcACZAACYSUAAU6pAPDZpEACZAABZpzgARIgARCSoACHdKBYbNIgARIgALNOUACJEACISVAgQ7pwLBZJEACJECB5hwgARIggZASoECHdGDYLBIgARKgQHMOkAAJkEBICVCgQzowbBYJkAAJUKA5B0iABEggpAQo0CEdGDaLBEiABCjQnAMkQAIkEFICFOiQDgybRQIkQAIUaM4BEiABEggpAQp0SAeGzSIBEiABCjTnAAmQAAmElAAFOqQDw2aRAAmQAAWac4AESIAEQkqAAh3SgWGzSIAESIACzTlAAiRAAiElQIEO6cCwWSRAAiRAgeYcIAESIIGQEqBAh3Rg2CwSIAESoEBzDpAACZBASAlQoEM6MGwWCZAACVCgOQdIgARIIKQEKNAhHRg2iwRIgAQo0JwDJEACJBBSAhTokA4Mm0UCJEACFGjOARIgARIIKQEKdEgHhs0iARIgAQo05wAJkAAJhJQABTqkA8NmkQAJkAAFmnOABEiABEJKgAId0oFhs0iABEiAAs05QAIkQAIhJUCBDunAsFkkQAIkQIHmHCABEiCBkBKgQId0YNgsEiABEqBAcw6QAAmQQEgJUKBDOjBsFgmQAAlQoDkHSIAESCCkBCjQIR0YNosESIAEKNCcAyRAAiQQUgIU6JAODJtFAiRAAhRozgESIAESCCkBCnRIB4bNIgESIAEKNOcACZAACYSUAAU6pAPDZpEACZAABZpzgARIgARCSoACHdKBYbNIgARIgALNOUACJEACISVAgQ7pwLBZJEACJECB5hwgARIggZASoECHdGDYLBIgARKgQHMOkAAJkEBICVCgQzowbBYJkAAJUKA5B0iABEggpAQo0CEdGDaLBEiABCjQnAMkQAIkEFICFOiQDgybRQIkQAIUaM4BEiABEggpAQp0SAeGzSIBEiABCjTnAAmQAAmElAAFOqQDw2aRAAmQAAWac4AESIAEQkqAAh3SgWGzSIAESIACzTlAAiRAAiElQIEO6cCwWSRAAiRAgeYcIAESIIGQEqBAh3Rg2CwSIAESoEBzDpAACZBASAlQoEM6MGwWCZAACVCgOQdIgARIIKQEKNAhHRg2iwRIgAQo0JwDJEACJBBSAhTokA4Mm0UCJEACFGjOARIgARIIKQEKdEgHhs0iARIgAQo05wAJkAAJhJQABTqkA8NmkQAJkAAFmnOABEiABEJKgAId0oFhs0iABEiAAs05QAIkQAIhJUCBDunAsFkkQAIkQIHmHCABEiCBkBKgQId0YNgsEiABEqBAcw6QAAmQQEgJUKBDOjBsFgmQAAlQoDkHSIAESCCkBCjQIR0YNosESIAEKNCcAyRAAiQQUgIU6JAODJtFAiRAAhRozgESIAESCCkBCnRIB4bNIgESIAEKNOcACZAACYSUAAU6pAPDZpEACZAABZpzgARIgARCSoACHdKBYbNIgARIgALNOUACJEACISVAgQ7pwLBZJEACJECB5hwgARIggZASoECHdGDYLBIgARKgQHMOkMC5E4gJIdR8Pq+oqmpXq9WeEMI999v5ThI4PwIU6PPjxXdPCYFKpTLjuu4lnU7nOsdxduu6foUQoqiqqmZZVhLCrChKQ1GUE47jHM5ms9+VZfl76XR66fDhw60pwcRujpgABXrEgGl+fAjs3r07rwjlxtrmxlO6vd7jFVlZtB0bHVA0VYtFo1GhqqpQFEW4ritkWRbtbkfoum5BsKPRaFPX9btjsdjnS6XSXy4vL3+PHvb4jH8YW0qBDuOosE1BE9AKhUI8FotF4vG4LPV6bl+W3ZQQ4v6VlU2I6N7Z2b3H1tY/7wp3QQgRkyV5CGGWJMnVNE1LpVIyBLrRaAhN00QsFhP9fl+kUilhWKawbVvE43GxurqKtruSJN3nOM4Xi8XibdFo9NjKyko/6E7R3uQToEBP/hhPXQ/L5XJKdpxDw4F+tWVZP26aZi6ZSpZN0yw4jhMxTdOJxeKWZZmOaRpSoVB6XzaXuXfp8OFbhZAOuML9Tj6Tf5tlWR3bsa8c6vovFouF6yDIEGkItGmawrRtMRgMRLlc9l6Hw6En2PCyu90uBNyVZLkuXOe/V+bmPnj8+PGVqRsMdviiCFCgLwofbw4TgT1zc5dvNhrPGQyHzxZC7I5FY4osywraaFmWF5aAgEJcHcfxQhSSJIlOt+Mk4vGPXnP99S+49+57f8aRnG9tbGys+32byRff2Wg2fgv3JhIJz3OGPfzdlSTRarVEJBIRyWTS+zeEQPCMdDqN8IfYrG+6EU27s1Aq3bK6uvqlMDFjW8JNgAId7vFh686RQCISeb1tOy+2bCuViCeUUqkkDMPwQhHNZtMTTwg0PFt4wbggovB2IdTVarWRTWfek0wl/tyyLMe0rNmIlmjajvmMzc3as2Ox2N5cLud5yhBnhDNgD170mS7Yx/sQAqk36s10MvmSdq93+zl2i2+bcgIU6CmfAOPe/fn5+cT6yspHhBC/gNhvKpmyur2uoiqqatlYuxMik8647U5bxs/FQtHzcNvttheagAeNnyHmw+Gw67hOQhKSqSpKz7StvBBCl4QUgzhD2CHQuB9hDoQ0JMVz0B/xwocALnwIwKNePrFsa6r6GsOy3jTu7Nn+0ROgQI+eMZ8wQgKqEK+PxeK/bxgGUt7uy2YyD+YLxQdc4TwYj8WWbNuOd7rdom3aC5v1+r6hPrgyokYOGpZRlCU5LoQjMpmMF65AqAKeNkQYwlqpVLyQBTxg3+OGJwyhhrBDoGVNPWPvEPqALQg6PHk8a2OjZsRjkT/sD43/MkI0ND0BBCjQEzCI09qFTCbzOKM/+DvLMv97qVj8zL7Zgw8mZhNS1LY1NZFZHPZ7i5Iihq122xqaZk3X9XXDMGzDMFTXdB9Vq208zbKMp7pCXJZOJTMQXQgqPGQIMbxqhDLwirAGRBYhC8Svfc9YUs/sQcMm4tB4zefznl3cv7a2bsfisd/o94fvndbxY7/PToACfXZGfEdICSSTyR9LRSLOeqOBfGNx2WWXHTz64IOvN0zzlxBVOJmDjNeOIkuu7bhDWRIr6VRqyZHEnYVM7g5DiLre79/Q7Xf/IJlM7oUQQ0z9TA3YhaDCi4Z4+4KL32PB0BfqR0KEGPja2prnja+trYtiseCJND4EarW6lS8Ufr5er38+pIjZrB0mQIHe4QHg44Ml8JhKJdnWtGtPrCz/gqqoz3Ecp1QoFGSIIjxZPxWu2WobqiKrtus8sHv37jta7daTdN24HGKMcAcEFJ4zRBkXhNsXbz/k4XvTZ+pBo9EUl19+mXjwwQdFNps95YnDPsInjWb73nw+f0Oj0TgWLAlamwQCFOhJGEX24f8jcECIqF4qFU/Uas+LaurNhmkdmputKFuea01g0Q9Ca7mOqFY3LVkW6r59+zzRRCwaHjQu39v1U/L8rI+Ti4pelsiZLgg+/iD2jOdC8GEbC5Ozs7NiZXXddV33dtu2f43DSAIPJUCB5pyYeALFeHyhb5rPsR37N2zH3VMuFT1hhRBjkQ8ijMXBTqfjZVtAhP0LIQ1/WzeEFsJ8eqz6bCEOfCAgtQ+xbFywjwu/x2KkFolhd6IRi8Ve0Ov1Pjrxg8EOnhcBCvR54eKbx5lALpfb2242f0eS5OcWi8Ws5x1L7qn4MgTaz9DAv0FMnRH/D4H4n4xH31sql59SrVbXxpkx2x4sgRFPv2AbS2skEASBeDz+rOFg8PpYNHZoplTwwhqIT/sZHH72hpfnfJYsjYttD7xyeOyNRqOTiCdf2e5233WxNnn/5BCgQE/OWLIn50GgUqnsr66v/6EkxM2LC/NStVoVCwsLXq4ywhbwpPE6aoGGp45skHq9LnTd/PbuPaUbjx6teRWXeJEABZpzYGoJoKhSvVp9syTEC+bn56IQSSweYgEPi3q9Xu+sG1EuFh7CKH6YY3Nz08kX8r9crdb/z8Xa5f2TQYACPRnjyF5cIIGTIv02RZaeXy6XZYgzFhD9GLQrj/a/CLx0LCAixLKVBmh8whXi37CO9AUO6ITdNtrZN2Gw2J3JJLCwsFCsra38r2g09jOIB5+exWGP+EQrbyHy5EYYPHdzc9NQteiVuq4/MJm02avzIUCBPh9afO/EElhcLD9qdbn6lfm52Rl4z34x/oGhj7TPEGUsSkKokR+9vl51cvnMSxqN9jtH+mAaHwsCFOixGCY2cjsIFNLpF7Y6nXcvLsyr2FSC6nPm1pFXI7u8hUhp678hskgcx3Hq9eZfuVvV+XhNOQEK9JRPAHb/hwT27t0bWzl+9EuKrDwOhY2wtXvUIQ48HV40ngVPGtkjzUbze/li6Zeq1SrDHFM+QSnQUz4B2P0fJZBKRH9LFvJbE4lEFHnQSmRry/eoLt979hcl8fdms9msFMs/f2Jj4x9G9VzaHQ8CFOjxGCe2cpsILC4uFtZPLC9pmpbBqSy94WCkT/ZPW0H8GX/gRdfrTTeRjD2/1xt+aKQPp/HQE6BAh36I2MBREUBIo9/vZzVZvqLXbT9RUTRzs9V6oyrEZ+Px2M9hAwmKKY3yQtwZW8xRQQ81O5DiNxwO7aGu/5FlOS8f5bNpO/wEKNDhHyO2MEACBw4ciLY2NnbbrvTEVqf1ZCHEU4QQaVkSaccVS7YQl+TT6Vd3Op03oHbzqAUaYRQsRqJwEkQa2SNIu2u3u19yhbhBCDEMsPs0NWYEKNBjNmBs7vkTwGYU1XUP9nqDJ/QH/Z91hfsE1NtPp9JSKpXwdvJ5oYVGU8/F45eki8VHHV9evmN+blb09dHqo3+2IWLQ+BkeNX6u1eqNYqn0zFqtduf595h3TAoBCvSkjCT78SMEDh06FOn1eoXNavV5/V7vCaqiPsWyrUQmnZFQON82LW/nnu1uHWWFLIpGs+XOzs7+dKvbXR90u3cV8jlp1NXs/LKjfp1pvMKLRpjDccWHbNv5LXrR0zu5KdDTO/YT2XMs8lm6fv3m5uZNspCebjl2Lp1Ka/7pJ4grQwCRf4x6G6a5tREFIo1aHNFY9Nccw/qqLdz7E4nEyAX69LMO0S5sWMEf1KdeXl4ZZnO5G5rN5pe59Xsip+tZO0WBPisivmEcCOzZs2fOMga/sLax8auuI66LxaJRiLF/PNUj9QEhBcR/kX+8ubkpkqnUf1VVcXt9s/PdmZmSBgHdyavT6XwjnrBvaLVEYyfbwWfvDAEK9M5w51MDIIAFP9HtZjqu/W/7vd4Lut3+ZTMzpQgW2ZBPjLgyQghnu/B+eK0olBRPxN4ViST+fLNWu6NcLnrx4J286vXmQJLFxx1HPI9e9E6OxM48mwK9M9z51IskgBhzs1r/5dXq+stVVZpXVbUAjxnCjMwICC6qxJ3tSCp/9x48baS7RaKRj8bjia/VqpvvqFTKZ73/Irtx1tvx4dFsth1JyK91hPNmIYR51pv4hokhQIGemKGcno5cfuDA1fd//8H/qsjyE6JQYWnrJG7/TMFKpeLFk/0t1Gci45f7xHsajYZIpVOf0DS1tVmrP39mZsZbSNzJC3HyjY0NMejrXUe4rxFC3LaT7eGzt5cABXp7efNpF0Hg0KFDs7W12q/XNzdfkUwmU8lUXFg4Ndu1vNxheM9Y7PMXAf0jrM72SNwHMYeoz88v3OE4drnZbF6JuDTs7uSFDwhknXQ7fdHutJuKqt5kWdbf7mSb+OztI0CB3j7WfNIFErj00kvTjuNcsray8of93uDnM6mMjHBGq90Q8dRWsXuIMS78DMFFsSPElP1TtB/p0RBmf5EQHvj+/fvXDMMot1otBbYg+Dt54QMCC5XJRNrbaWhZ9jeGxvBpQojmTraLz94eAhTo7eHMp1w4AWluZu45m/XaK2zbPpRNp73YcqvVEqiV0de3UuYgpHjFoiDiyX4Zz9OL7z9cE/y8Y3jLiF0jrIG4NH6GMJ7LIuOFd+3sd/qnrQwHhrcNvLZZs1whfk8I8baz3813jDsBCvS4j+AEt//QoUOptZWVl7Ra7d+zHTu7d89e0Wo0PNGEoMLjhQcNQYWn6S8K+oe+wpM+W5ocbPkLhfCY8Xfcg3vxjLPdP2r86Au+HbjOVhgGcXJXiC+YlgkvemfjL6PuPO0LCjQnQSgJPP7SS9N3r63f0u93XqRpWjqmRU55x/CQIaD4sx31mncSEAQa4Rx9aHoCjQ+iRqOxrgj3BlOIf97JtvHZoydAgR49Yz7hPAkghe7w9w/f6rrO81VNTkOYIorqCTLE2V8QnAaBBjrE0XvdgSfUyMvudrumqmi/PDAGnzxPtHz7mBGgQI/ZgE1Bc6VMKvMHvW77FRFNTWDLs7/9GX33D1jFz9Mg0P6GG1WJeALd6/VEs9UUiiy/xnKcN0zBfJjqLlKgp3r4w9f5XfPzz19ZXbstEYukC4WCt1h3+nV62huEe9TlQHeaEBYGsQW9VJzZ2khzsn60YZgfcITzwp1uH58/WgIU6NHypfXzIHDlpZdee8999306mYjPIfd3fX1d5HK5U/U0tupqbOU7nzoqasKXUfxFQuHKXnjDP4Gl2+v+tSvEz3H793lMsDF8KwV6DAdtEpt8/fXXV75/730f7ve7T41GoxIyMvwcZfTXL3okST9cIMTv7QkXaH+sEeJAaiFCPuCyUd34pivEk4QQvUmcD+zTFgEKNGdCKAiUcrmXDgbDP4rHoxLS27x0Mtf1tnDj1XXtU56zv1jo/V4+ezGkUHTwAhsBrxmpf4q8tWHGO2nctrGr8AFXiOuxQ/0CTfO2MSBAgR6DQZr0Jj720KHH3v0v93xSluW9pVLB29kHL9GvpfFQgfY9ai8eragTjQd997M4EO7BIiG4dLudZcOyrhJC1CYawJR3jgI95RMgBN2XZmdL/2N9rfYfSqWCjNBGs9n0RAjCdLZ6ziFo/0U1AVH106+H/oeEt4xvFLZhexksWCTEwulwODgxtKwfF0Icv6gG8OZQE6BAh3p4Jr9x119/1RX/+PVv/99KpbzLr98MDxpCDXHyFwMnlcTZBBr9R/GnbCrrfbPwwz5r62ur0UTi2n6/vzKpbNgvxqA5B3aQADakDHqdVy4dOfa6/fv3SiirCa8ZouTXoJh2gfZriwx7Q++ILnjR8KD7/f4J3bYeyxDHDk7gbXg0PehtgMxHPDyBa665Jvudb33z89lc9nH46o5qbXj1K8jBoz5bNbpxZ3s2D9pPrYuqPyx9ig+tdrt1WLftq4UQrXFnwPY/MgEKNGfHjhHYv3f/S5eOHH7Tnj27oog74zq9bOjpOwh3rJE7/GAw8EI/suaFN2KRiFdGdagPv2kL8QQhxGCHm8jHj5AABXqEcGn6kQlcdeVV137nrm9/plDIzeJru1/W09sdaFneH+yi2+kzAXd6DLFYCoHGRhWvdKrjeLFoQzf+wnDtZ3Gjyk6P0GifT4EeLV9afxgCj3vc42a/951//pTtONeVZ4pezjPiqxBjfys3vEVkL5ztTMFJB+wvnEa0mLdYiFS7EysnUIvjNstxXjrp/Z/2/lGgp30GbHP/sTC4fHz5T7qdzjMqlUrcMLdqbcBzhkDDc/bLavq/3+YmhupxiMcjNo+dhPgZH1zYUfiDwn63GJb1+lA1lo0JnAAFOnCkNPhIBJ785CerD9x336+vrK6+c252ToFHqKiTPQX9QwPwAYQwjr/oh5/9SnXYvu1vztnalOOe+qCCB+2FeizXe8W3DXyIyaryi7quf5qzbbIJTPb/jskeu3HrnXzw4MHHP3D//e+fKc88CkIFj9D3oMetM+faXl+gIcj+t4TTvxn4G1H8sxTxfj/M45/uAk6tZsfb9o6So7VazXKEe41hGN8913bwfeNJgAI9nuM2dq1+/DXX7P77b37zI8lE8gn+adleCp002ac2eTWrbftUTWt/0RN994TYdu5XVfXgqd9r6qmzFTHI/rFbhr51PiI86kG/f6/lOv+KKXZj99/gvBtMgT5vZLzhfAncdNNNymc+9an36YZxc6lYimKjRblc9r6uT3itIy+McfoJMP7PYAhRtk3rE6qiPF1RFO9Yci0WPRXu8AsjQaQh0PCgEX8eDPp/4gjx/PMdB75//AhQoMdvzMauxTPFmec0mvX3z87ORrBbsFKpiHq97oU4Jl2gMVj+GYr+z36NES99zrbfIoT0PE3TZuAhgwk+wJTIj55SHosmvN/Xm96huc+1bfsjYzcR2ODzJkCBPm9kvOF8CDz60Y++5q7vfe+vCvlCBQKDLdzwCHFKiJda55jnY25s33t6iVQIMTxpLAxqsvoK27aeK8vyldik4+eBw5P2FgNPFoyyzK1QULPdqsViseuHw+HhsYXBhp8zAQr0OaPiG8+XwOWXXz537z33fKBULD213++rOMIK4nT8+HExOzvrCZQkP3Sz8/k+ZTzef/riH9IIEd5A6VBN0f69Y5u/4rripxHC8AtEwYP2Mz7ggSMPulqtCtt1PiGEuMk7WobXxBOgQE/8EO9cB1Op1O/3ut3Xl4ol2f/qjm3KEGfk9sJDjMa2CtFP8uUXfPKzM3yBBgNNyL9iu+4vCeHehE0o/sYUoWzlhfuCjRAHvnUYlvlyIcStk8yLffshAQo0Z8MoCCiXXLLnSYcfPPq5QiHnLX5N6+WLM9LoEN6BN4zdkfjA8uLwsnhyJBp9Zq+nv6RYyArXlbywxtA0ttIQdcurT9IbDPGNYzkWizyJ4Y3pmU0U6OkZ623r6RVXXLF76fCDH4lEtMerqipv24ND+iCINEQZsXcINDxpeNG1Wk1EFe26WFx7ervdf20mk8SeSi/XudFubcXoLdfzovtDXei6cbvjmP8upN1ks0ZAgAI9AqhTblLOZTK3tNrt18zMlGSEMab5giCfvuHEPyEGv6tWq05cjTzGlaynDXXnj+bnZoRlOZ4gq9GtQ2JRJAk7DTdqVSMejz9pMBh8bZp5TlvfKdDTNuIj7u/+3bufunTs2Od2715UITB+lboRPza05n2BhtfsZ2T4Rfir1U0rIsQVpZnSTzVbzXfjPel01otDx1PJU1XsEB7p9ntfElunePOaIgIU6Cka7FF39cpLrtx194N3fSqfy1/liq3dc7zEjxzb5Yc34CXX681uLB6/3DUGP+u40nvhKfs7B3XL9EIdmhoV6+vruqTIv2YYxsfIc7oIUKCna7xH2ttELPZfBsPhqxYXFuV2Z+vg12m//C3dfh60L9CISbdanZWcEFdEi/l/W2803+Vnt3gbW9StTSvVjU3hCvfLxVLpxlqt1pl2ntPWfwr0tI34aPorz5Zmn1irVz+5sLCQQ3aCqm2dLTjpZwqeDSfCGRBj/6xFeM5+TY1Op3ePK8ShXDz+4s5g8LZ0asuDxr8PDN1bTOy0e+1oJPbrA2Pw52d7Fv998ghQoCdvTLe9R5deemn6/vvu+6Smaj+dz+c9YbFswxMaf1Fs2xsVkgfiWwR2UOLV36ziH2PV6/e+advi2nwy+XtDQ38zNvIgNxqhjt5w6wTvYV//K8O2nh6S7rAZ20yAAr3NwCfxcal46sW9QffWXDYX8c8U7PU7ntBMexYHdgtiAwp2TSKmDLFG6AJ/73X7H3OEuDkVibxhaBivzmTSXs1n1MmOxpPI8hjmCvlr6/X63ZM4b9insxOgQJ+dEd9xBgL79+/ffeTw0ucLhcJBbFVGbi9EGlu4/cyFaQboL5TCG0Y2BsQZYQ78HIlGX99ud2+Jq+pbZEX+nZmZGU+cIeq2Kw1N07jVcpzXTjO/ae87BXraZ8BF9v8HeRqvc4V4balYkiA+EBeENmLxiPd1Hb+b5guhDTDxN6nAgz4ZynAiUe3ZGxv1j2fj8bd0B4PfKZfK3nvxwdbXh/9QTiafudHrrU8zv2nvOwV62mfARfS/XC4f6Hd7X8tkMkUshHU6HYEYtBc71funztC7iEeM/a3+8VV4RYjDL95frW5u7Jmdvf7I2tqRuKJ8QsjKMxHeKJVK4vDS4UE+l7ux1mzeMfYA2IGLIkCBvih8031zJBJ5g2kYr9y7Z6+M0AZCHPiK7m3IELYX6vBPCplWUn6IA6/4RgHveWVlRSQTyT9td3u/KoRQVCG+kUymrkqn08h5dmVFvlW3rFdMKzP2+4cEKNCcDRdEoFQqzdVqta/Pz87tgueMDAXUjmg2m95CF2LQfiW2C3rAhNwEz/n0DTtgZRhWb6ZS+en19fWvX1KpzNTa3a+oEe1R+Dfbsb9aSc8/Y6WzUpsQBOzGRRCgQF8EvCm/9Tej0eht+WxORUYCvGfUK4ZIQ6D9jSrTngcNccaW92Kx6H27sCzLcGz73QPdfCkOW9k9O3tFtbr5pXQ2k9+sbzbmKpUbl9fXvz7lc4vdP0mAAs2pcCEElEQi8eXhcHjV7EwlBoGGt5zNZj0PGqIcT0S9DRrTLtBggLAGajl7Zwxa7tczueyzarXaCsDvWVz8uZUTK3/luI6Vyeef12g0uJ37QmbkhN5DgZ7QgR1lt2ZTqfJGt/tGWVZ+MRaPFFOplOxlHvT7nveMzAWINrzH0NfjcE/WC3nE08XPfHCJt+sPJ8NIilfvGYKMKxFPeR9WuPAe/Gk0G9VyfuapG42N7+LXODc2EYvdYhjmKx3HfqsjxGtGOW60PX4EKNDjN2ahaPGB2QPlulGPNupeaNzhAAAeSElEQVT1D0mS+KlcLntq5yBE2d/eHIrGnqkRFynQMI0PJdveynPGH6TUyZLqfVB5RfcNQ2xuNqxsJveb9Vbtvac3JxqNfU7Xh06lUnn2+vp6L/S82MBtJUCB3lbck/ewXbt2PXFjffXT2Ww2Cy8RC10QJoi0f7TTePf6zB60n0aHOs6Iw4MB+q0Pt8I7yGseDAZONJ74rX6/+24hBP7PeQcxzs3N7V5dXX/t7OzMq9bW1qrjzYmtHwUBCvQoqE6RzcXFxQOrK8vfyGa9fd5bO+QiEc9rnIxiSWcWaMTe4SVrWtTbxu3X0sAhr/h7p9PpOsJ9kxDiDQ+dFrlcbo8kSW6j0Tg2RVOGXT0PAhTo84DFt/7/BEqF7Ivane67E4mEBK8ZHiQEGnFZ/OwflDo57H5UsBVF88I5+GBCHrNfCCmdyoqjx45asWj0dwa6/vbJ6T97sp0EKNDbSXvynqUlk/GPRyORf+2X0PRFGsIMz3LyiiX9qEAjtIGiUFggxbcG7ATEyeWtVsfOpnMvbHaaHxVCTPe5X5M377etRxTobUM9eQ8qFos/Vd/c/OtUKqHCa/aL0/tFkvzTqyev5z/sEcIY5XLZy9jA69rqBsS6Xpop//L6+vrfTnLf2bfRE6BAj57xRD5hIZ0urnZ7X8xkklciiwGeMgQaX/WxcIav+37hpIkEcLJTyNjwa5AcP34Ci39fmV9Y+E8nTpz450nuN/u2PQQo0NvDedKeokW16JsNU39JoZAb+znkHyrgH+qKbwBY4PRP44aXjG8IKATVqLdOVejD+1C1Dx9E7XbXVhXlPTOzs288ceLE8qQNOPuzMwTG/j/XzmCb7qcWsoUXNlr198yUZ2ScnDLOl3/KCfrgH0sFwUZ2Bl4RR4c4I4TR7w9FNpP1uou4MxZCG82GkGWxmU1nX1Vvtd4vhDhz2sc4w2Lbt50ABXrbkY/3A/fs2fNzx44e/XAumytCuMZdoL0DWk87O9H/2XUkLwMFcXSvn5bledQQZoRxkE7XH/Tbiqr+XT6f/8/VavU74z2ybH0YCVCgwzgqIW3Tnrm5q4+trn62MlOpYDMGvMpobLwL8sNT9jfWeLUybNvzpBVZ816RkYEaI3iPv5V9bX0NseblRCz2P7OFwm0rKyv9kA4ZmzXmBCjQYz6A29X8g/sO/tgDS/f/WbFQvBQiBjHzzh98xBoW29Wyi3vO6eVA/bCG50ULxfOs/a3a+DevGp3tWJIQt8/O73rnysrRb1/c03k3CZyZAAWaM+SsBC7bf9mj7zt87+2JeOKx8CaxaIav//AqUZh/nC+IsJ+rjf7gDy7LdDxvGhkq6G+73R44rvu1fKH0Lk2TP8e6GeM86uPTdgr0+IzVtrf00KFDEdd1H3X4ge9/QDeN6/bt3SeOHj0qKpWK9/Ufp6gkU/Ftb1eQD/QLO8Gmn8uNuLNpbH3wmKbpDPXhd+PR6HtT2ezHNzY2eEZgkANAW2ckQIHmBHlYAgcOHIjGYrGZe++55xOO7Vx78OBBsbS0JHK5nOdRYsHMq/U85iEOeMy+B43+oG+93gCZGJuaqh1RVeWPK3Nzf7m0tERh5v+VbSdAgd525OPxwAMHDlx1+PD335/P5a4Kc4v9AwGQVYEPDz8+7seW4SFjM8nKyprYtWvBy75AFgZCNUiTc1zJC2NsbGy4ruuigPNdmqb9U6lU+gtFUb6xvLw8CHP/2bbJJkCBnuzxvaDeHdy377rvH116r6aqj0EJzTBf/u5F7FyEOON4KaTCQXQhxvCOIdazs7Pi8OEjolDIeeEZhDPgLataFKedDFRVfWk8Hv+/+Xy+dfjw4VaY+8y2TQ8BCvT0jPU59XRhofKvVk6sfyifzx6EuCGLIcwX4sXwhnGkFIQZwttoNLzfYYcfxBie9cbGhndeIjxuhDXwfry31e7aruv+khDiU2HuJ9s2nQQo0NM57g/b63I5//OD/vBjsiynvRQ6VJZ3vdryob38XGVUkYPHnEgkRL1e99qLg1rhJSOUgW3ayNuGp4334f3Hji03k6nUi7rd7p+HtoNs2FQToEBP9fD/sPOFbPbfN9utd1QqM1F4zsj5RXgj7OVCcQ4gwhozMzPixIkTQtfN5sGDBxqdTmcfhBkX+uAfP+XX1ajXG/2Iqv3HoWl+iNuz+Z8grAQo0GEdme1rl5ZOJ1826PdfWygUklsHoG6FAbC4hhrHYb7Q3pPtNPv94ZG5+fnnNzZrb3dc52qENPANAF413ufX1lhb2+i6Qvy+EIKF9MM8uGybdz4aryklUC6XU71e5xWD/vDliiJFsJDmx20hauvr615IIMwXPGiU+2y3u59LpcVzbTux1zSGX8AZif7OQAgz3gdPenOzYUei2u/quvm2MPeLbSMBEKBAT+k8mE/Pl9Z76290HPuFMzMlGR4zQgW4/EptiEOHPQZdrzddWRYfsB3xUiFEV5bFH7uOeFGlUvb6gvb7B7s2my1HUeWXmaZDz3lK5/24dZsCPW4jFkB7y+XybK1a/aCqqDdksqmRz4HTq8X5YonfITQBjx1eOhb28Hcs5qFAEbxdv3IcPjz8kp/+fbADcVZV+bbyjPP7Kyuin0gk5gb9/pdLpcIlyHXGdnTch0yUjY1aNxJR360b1u8FgJAmSGBbCIz8P+e29IIPOWcCs7OzV6yvrX2mWCjuEUIoo66l4R+i6oslBNMv4+mfiI0QxSWXXCKOHDni5TIvLCyIpaWjolwunsprRuYFsjK8r32ShLQ5x7Hd/+EI8eKT3wTduXL5iWvV6t8Wi3kNYu+XEkWKne04tzqOePk5g+IbSSAEBCjQIRiE7WpCPp3/yWan8ZlEPJGDgHmLa+ZwpI+HJ4znwAvGQp2fReELKGpe+N4xUt+Q17y5udl3hXtfLpt7dCQSUfE7eNnIXcbr2voa2vyXpXL55mq12vU7kIwnb9b14Ufy+bwMDxqZKPDI0YZ2u31Ci0aeMBwOl0baYRongQAJUKADhBlmU5lM5vpOu/2F2cpsEuIFUYRXOup6zqenuPnhDf/kEu9QWTXqZVnAi+52u65pmrV8vvDbqUzq7pXlE1/MZrMZCC3uQagCr91utzs/u3Dj0vGlL53OvJguXlbvbH45n8uX/NAG+ogPB2SjdDqd1Vw8dn19MDge5rFi20jAJ0CBnoK5kM1m871292OyIj8NO+wQ20Xs1/Nmo1vlNUd1+YXu/XQ3CKyfWw3Bbbe2HODhcGjLsvKuQqbwnvXG+l0zMzM/Vt3YuDOVTGUR8lhZWfHysnEhXm0Y+u2OEP/uoe2Ox+O7bMN8lyTLT8ez4UFXq1Wxf/9+cd999wlXuF9JpdPP7HQ6tVH1mXZJICgCFOigSIbYTiQSeYZrO+93XbeAbc+IAUMkvXxnTR55y/3DV/3TS/BA/Izn97oD3bTMO0rl8juEEF+qVqs9JF/snt/9MydWlz+1uLgYRwwZtTX8PGaER1ZXV11V1V6mm/ptD+1ATohcS4iPRSPRp6iqGsH74YUjhLK6uuo4jv3xk+LOQkgjH30+4GIIUKAvht6Y3Kup2ttcx3lxMpmUEMOF4MEbRW7wUB/taU0ILeBZCGfgQwE/Q5zr9bpuGNZGLBp9x8zs7EeOHj2Kcp6nDlw9UChkDtfrr4tEov8JcWi0G2mAEHu0G/HsdqfdyhcKz67X63/zMEORjqjqR11X3DA3NxdZXV31dhuejHG7ruu8yRHi1WMyhGzmlBKgQE/+wKuSEP+QSWeuRWgDMVmIHcIb+BOLb9XcGNUFLxmiCqH20+3q9aYtCfGnC7t2vfn48eN3nenZihDPdYR4e7lUzqG9EGe//gb6U61V/yWeSPxMv99feRg7UUlI/1sI91/v3rVbQhEl3Is/rVbL1lTlBUPT/DA89lH1n3ZJ4GIIUKAvht4Y3JtOp4u9TvdLsVjsCnivCBMgxAHBxOKcbmx9y8fvEBOGmGKBDXHbQqHgvQ+i2O50vPfhHhQdwqkqXvGhZMaLD+M9iPdisQ9eKsIJ8HghhhBShBja7bZrO/a35yqV162sr38WkY5zQRiPx6+zLOuDtm1fWi6XFX97N9rcbraEbVsfdoR43iPY0iQh/kwI8Yx9e/dJ+PaAPuDezfpmq1gq/WKtVrvzXNrB95DAdhOgQG838W1+XkqImZ4QX6/MVPZCPCGYECiEGyBS/UHX++qPzA6/uBCaiJivL9yNRlMs7lr03gMbiGP7toyh6dVaxr1Ig8MiJO716zJD8FdWV4QiK13Hcd8yvzj/juXl5a1yc+dxZbPZfd1u96NCiMcWi8U4PkAWFxfFsD8Qtc2aE9G0l+qmiTj2w14RTfsz0zRvuuLyKyT/AwXtNUzja3tm9958ZO3IkfNoDt9KAttCgAK9LZh37iEpIcpDWflOMpmch5cLjxjCDFGGUOUyKc+7hdcLYYW3i3jtnv37rAcffFDNZrNHSsXiJ3v9/n/s9XreBhDvvfG450FrSsT7O7xzeOAIQ0Ccy+Wy9zoYesdHfWLv4uKtS8vL/3gxJHK5XK7Var0vEoncmEwmvU+QQi7vxdR1fbgR07QbW/3+Pz3cM+aFSGwo6u22bT1rfm5egsDjg+X48nFXEuLdjhC/eTFt470kMAoCFOhRUA2XzYwiyf8cj8f3wruF54v0M3jS8Hoh0BBaVH7zPWYIbqPdGaZTifcVSpE/6HTEO1vN1q9CvOF9Q4S7vZ6Ym5sTvU7f24iC+C68ZXjXiDWvrq4ObMc+XpmZfYOsyp9dWVkJMq0NtTReVCwWo7ZpeR8QWHg0TePzmVzupkaj8UgnomBf+8c1Vfup2dlZFR8g6Pfq6qqdTKd+pdVq/Z9wDR1bM+0EKNCTPwNUVVG+osjK9RBY//LDHJ1WQ2TTGQE3EqK9tr6BBbPPFPPpN280Ol9dqFRe1mjU3zq3uOBWq1UZ8WnYgdB78WotdqoCHu73Dl3t9wbpVOYDhVLhLUewf3sElyzLr/rB4t4tiVg8ilg5YuvLJ5ZdTY38N8My8G8Pe5VKpXRjc/PTjus+abYyK+E+1P4YDAf/Ml8o3HCiXl8eQXNpkgQuiAAF+oKwjddNshAfjESiv4ZaFqcXsUdIAytoCH0cOXYMqQyHK5XKa2whPr2+vt6bLRSu6PZ7d2iaNuPKWzWiIWjY5IJ7vawMsbWo6HndjYYjS/KduxZ3v+6hu/xGROzlEVV7TSKRSCN0g3YM+v1qNKLd2O73v/FIz8TGHXOof1XVtMv9cM/SkSVXEvJtjnBeNqK20iwJnDcBCvR5Ixu/G+LR+G/r+vCNmqZF/XoXWPDzqsm1mkI3TUuR5bfnZ2betLa2tnkyH1lShPgLIcQv7Nm9y6sNjfAFYrf79u3zQhoQ6f7Q8EIkqqouq4r23zL5zAdWVlZGm1z9o0NwiyTEa3fv2i2f3C4uHNf5umXbjz9Tlkg0Gj1o6Prns5nsbj91b2V1pe8K8eNCiO+O3yizxZNIgAI9iaP6kD7FI/FnWrb5oWw2m/YryCGLo9FsDBUh/r6Yybx6vd3++snbcEqsWUinX9gf9N+HxT4IH8QcHjPCGP5xWNhyPTQsR9Mi701lUm/b3Ny8dydwykK81RXixYsLiyq8+0az0YlEo6/Rdf2MdZ/z+fxPdlrtv0FWCPLDdV13Iqr2J31j+MKd6AefSQIPJUCBnoI5UYgXFhuD+t/HY/FdENzjx4+jjP2yJOS3OsL5Y5TCOIkB88EtxOO72oPBP6VSyRksovm1mv2CRRDo4XBo2LZ9d6k880olEvny8vLyTm6blqJq5OOmZT7TS70bDrGB5fuZbPa6VqvVONMQa7L8G7bjvnN+fl6GSLfaLT1fKDylXq//wxRMDXYx5AQo0CEfoKCaJwv5z4Rwn+UKdygJ8blMLPfy5rD50AU8FOZwIkL8aa6QvxkeMxbQsKCIFDrEmfG7ZrPVVlX1nblS6W1ra2sQQCuodl6onUwmU+i0219Mp9IoUYpNKG4qmfzdTq/3R2ezqcryrZIk/+78/DxyuZ1+f/AeRzi/cbb7+O8kMGoCFOhREw6JfVnIvx2LRm5xXec/DAzjY36R+4c2L6ZEnqOoMk66lpHb7Oc966aJWPNAVZQ7krHoqxq9XujitPl8/umDXv8v5ufnFeRG9/v9e4rl0u86phmxXDfqWE7Mdu24a7sxIRyU8ZPS2eyaY9tP63V7z0FfsWjY6XZWcvn8r0ej0XssyzJSqVT/yJEjbZ7+HZLJPEXNoEBPyWBHo9FLcIKKruv3P1KXFxYWFuvV2t86tn0pNrIgXo0FQN3QHVlWlvOF/Ks3ajXs5tvJS0mlUkVN0yqDTqdou9JB0zZnVEW92ratSiad+Ql4+/CisRBab9T9Ohtezolfi8N/HQwHbjqVtrLZrObH1rEQOhgOeqqi9izbQj3Utqwo667rnnAc52gymVxKp9PHdV2vO45zfHFxsXf33XeH+/jznRwxPvuCCVCgLxjdxN2oxjTtw6Zp/kq5VBaxREIcPXZUyJLciccTb470I2+vizq8yO28pGQyOZNIJOab9fqVqqo+Zqgbj4pHY3sG+mBRluSC4zqSqqgSBBnhF2SaIGaOC0WhkKuNC56xf4Ds6Qfh4j6EcfDvyOaAqGNDD/7un/6C1MRWp+2JvmEYEHxbluW+JElDx7ZRHvWIIqvfK5eLd5u6fn86n19aWlpaFUJQtLdztkzgsyjQEzioF9KlfDr9+Han89fpVDqJr/rNdls3TONOVdNebZrmNy/E5oXcg1hyIpG4ZGNt7Sd+cKzVtUJI10iSVHJcp4SQhKpsHSCLFD+8YhET4QwIKkIy2B3oF3nyT2KBcPuXn4ni/w73IcYOEcbv8HpSiD2Bhw0Idm+wtWMSgo/3IO8aYp5KJL1vGq32qc2LEPA1WZLuFpJ8NJlIfiudTX8L4ZbTdjh6i7EXwof3TBcBCvR0jfcj9TYrC+n72Wy2NBwOe7qu9xzhvlIIcfu5Vpy7GIy7K7v3b7Y2f2Iw7D3RFeJxP3jufiFEUlM1BeIIMURIwq8lAqFEmiCyLnAhHAMhhdhiMw1EGiKL9+N3EF54zRDS0z1p/99gD6mEfmgE4o/QDgQfz8DfLWfrXm9zj6Z59rxnNZre7/zfo624B145fgcRt2yrk4gnlrSI9o+KLN8ZicW+aVnW8dPPU7wYfrx3cglQoCd3bM+5Z7IQ75QkGVkLbdd1/qSQSNxae/j6yuds82xvzOfzVxqGcXW/179JCPfRsiTv1jRNgiBDbBGqgKBC7ODhwnOF8EI0IX7+6SoQQLwPf5dl2bVsC8WZLFmSHcd1oic/YMyTr/Ba8e8IPeAVWSsoeaoriqrZtmUrkqy7QpQd16lJQspIkiS7rqu4wpUkWVZdx1EkWVZcx1Flaes0GoRZ4N0rsiJsxxbFQtHLeEGb/BKv+ACAeNu2bTmu05Il6Vuu6/5TJpf7a8Mw7u/3+wiJ8CKBHyFAgZ7yCZFIJG7Udf1Ttm1/NZFI/Ha/3x9ZOGNubm5Pu9l+fH/Qe5YQ4idRjK6QzWl+nBge58kNI56YwVPVDeilsCQh6a5wkc5nSEK0XCEgoE1XuDUh5J4kRBPHFaqK0pAUqY34sBCKGY0oXUkIW5IkS5Zlw5ZlQ7EsU5YkW5ckR9r6g2e4J1/hcfvhB1cxzZgTiaiKbUcsW47asp2wDSPpmE5at62EcEXadMyMpqolx3GKjuPkhRD5H+zMLNiOk1ZkJa0oSswwDXxYSLFoTPLDJPDsbcceSJL8gHCdOzPp9N/FU6lvr66uHp3yacnunyRAgZ7uqVDWNO2zjuO8y7btD44CxYEDB6LdRvfH6q3aMy3LRh72gUQ8ISNk4Xm/lulGI14JU91xna4syZuqqpwwTPOEJORNSYhjiqY0Ipq2rqnqpixEY+A4rW63i8U5bLA5p6L/o+jbGWzG0+l0IopLkmYsxylo0fisZVkLujHcZZv2Pi2i7el2uznLstKO6yCco9q27TqusyrL8t9nUtlPDc3hnYPBgMWbtnnwwvQ4CnSYRmOb24LUO0mS7OFwGHjFuQMHDpQbjcbPtlvtF1iW+RghRE4SiBLINeG6m7brnFAVbVmW3LscV1pXJPdIOp9fq1arSMHA8S2TnAGhlUqlWCwW0wzDWLR0veI40mK708R4XCNL8uVCkpJCuF3HFV8o5Ap/MzSHX+h0OqiTwmuKCFCgp2iwt6Ore/fu3bu6svqbhqHfjINZhBDHolrk/nQm+z0tqt0VkaRjneGwGo1GGysrK9gezmyGhwwMjimLKbHdiiYObFSrVwshdkmybLqO+IYqnC8aQtxDbtsxm3f+GRTonR+DiWjBvJhPbKgbj5Mc52pZUfRCqfSPcSE2Dq+u4iv6qdO6J6KzO9MJNSIilzvCyVnCwgG5D+5MM/jU7SRAgd5O2pP9LCWXy6WbyE/jRQIkEAgBCnQgGGmEBEiABIInQIEOniktkgAJkEAgBCjQgWCkERIgARIIngAFOnimtEgCJEACgRCgQAeCkUZIgARIIHgCFOjgmdIiCZAACQRCgAIdCEYaIQESIIHgCVCgg2dKiyRAAiQQCAEKdCAYaYQESIAEgidAgQ6eKS2SAAmQQCAEKNCBYKQREiABEgieAAU6eKa0SAIkQAKBEKBAB4KRRkiABEggeAIU6OCZ0iIJkAAJBEKAAh0IRhohARIggeAJUKCDZ0qLJEACJBAIAQp0IBhphARIgASCJ0CBDp4pLZIACZBAIAQo0IFgpBESIAESCJ4ABTp4prRIAiRAAoEQoEAHgpFGSIAESCB4AhTo4JnSIgmQAAkEQoACHQhGGiEBEiCB4AlQoINnSoskQAIkEAgBCnQgGGmEBEiABIInQIEOniktkgAJkEAgBCjQgWCkERIgARIIngAFOnimtEgCJEACgRCgQAeCkUZIgARIIHgCFOjgmdIiCZAACQRCgAIdCEYaIQESIIHgCVCgg2dKiyRAAiQQCAEKdCAYaYQESIAEgidAgQ6eKS2SAAmQQCAEKNCBYKQREiABEgieAAU6eKa0SAIkQAKBEKBAB4KRRkiABEggeAIU6OCZ0iIJkAAJBEKAAh0IRhohARIggeAJUKCDZ0qLJEACJBAIAQp0IBhphARIgASCJ0CBDp4pLZIACZBAIAQo0IFgpBESIAESCJ4ABTp4prRIAiRAAoEQoEAHgpFGSIAESCB4AhTo4JnSIgmQAAkEQoACHQhGGiEBEiCB4AlQoINnSoskQAIkEAgBCnQgGGmEBEiABIInQIEOniktkgAJkEAgBCjQgWCkERIgARIIngAFOnimtEgCJEACgRCgQAeCkUZIgARIIHgCFOjgmdIiCZAACQRCgAIdCEYaIQESIIHgCVCgg2dKiyRAAiQQCAEKdCAYaYQESIAEgidAgQ6eKS2SAAmQQCAEKNCBYKQREiABEgieAAU6eKa0SAIkQAKBEKBAB4KRRkiABEggeAIU6OCZ0iIJkAAJBEKAAh0IRhohARIggeAJUKCDZ0qLJEACJBAIAQp0IBhphARIgASCJ0CBDp4pLZIACZBAIAQo0IFgpBESIAESCJ4ABTp4prRIAiRAAoEQoEAHgpFGSIAESCB4AhTo4JnSIgmQAAkEQoACHQhGGiEBEiCB4AlQoINnSoskQAIkEAgBCnQgGGmEBEiABIInQIEOniktkgAJkEAgBCjQgWCkERIgARIIngAFOnimtEgCJEACgRCgQAeCkUZIgARIIHgCFOjgmdIiCZAACQRCgAIdCEYaIQESIIHgCVCgg2dKiyRAAiQQCAEKdCAYaYQESIAEgidAgQ6eKS2SAAmQQCAEKNCBYKQREiABEgieAAU6eKa0SAIkQAKBEKBAB4KRRkiABEggeAIU6OCZ0iIJkAAJBEKAAh0IRhohARIggeAJUKCDZ0qLJEACJBAIAQp0IBhphARIgASCJ0CBDp4pLZIACZBAIAQo0IFgpBESIAESCJ4ABTp4prRIAiRAAoEQoEAHgpFGSIAESCB4AhTo4JnSIgmQAAkEQoACHQhGGiEBEiCB4AlQoINnSoskQAIkEAgBCnQgGGmEBEiABIInQIEOniktkgAJkEAgBCjQgWCkERIgARIIngAFOnimtEgCJEACgRCgQAeCkUZIgARIIHgCFOjgmdIiCZAACQRCgAIdCEYaIQESIIHgCVCgg2dKiyRAAiQQCAEKdCAYaYQESIAEgidAgQ6eKS2SAAmQQCAEKNCBYKQREiABEgieAAU6eKa0SAIkQAKBEKBAB4KRRkiABEggeAIU6OCZ0iIJkAAJBEKAAh0IRhohARIggeAJUKCDZ0qLJEACJBAIAQp0IBhphARIgASCJ0CBDp4pLZIACZBAIAT+H+/zZ9E4Uc0NAAAAAElFTkSuQmCC;" vertex="1" parent="1">
          <mxGeometry x="70" y="30" width="210" height="210" as="geometry" />
        </mxCell>
        <mxCell id="TkU13Esd5rK07mhHMYOw-14" value="&lt;font style=&quot;font-size: 36px;&quot;&gt;&lt;b&gt;&lt;i&gt;Crow&lt;/i&gt;&lt;/b&gt;&lt;/font&gt;" style="text;html=1;align=center;verticalAlign=middle;resizable=0;points=[];autosize=1;strokeColor=none;fillColor=none;" vertex="1" parent="1">
          <mxGeometry x="120" y="180" width="110" height="60" as="geometry" />
        </mxCell>
        <mxCell id="TkU13Esd5rK07mhHMYOw-15" value="&lt;font style=&quot;font-size: 20px;&quot;&gt;Fazer Login&lt;/font&gt;" style="rounded=1;whiteSpace=wrap;html=1;strokeWidth=3;" vertex="1" parent="1">
          <mxGeometry x="60" y="350" width="110" height="50" as="geometry" />
        </mxCell>
        <mxCell id="TkU13Esd5rK07mhHMYOw-17" value="&lt;font style=&quot;font-size: 22px;&quot;&gt;Cadastrar&lt;/font&gt;" style="rounded=1;whiteSpace=wrap;html=1;strokeWidth=3;" vertex="1" parent="1">
          <mxGeometry x="190" y="350" width="110" height="50" as="geometry" />
        </mxCell>
        <mxCell id="TkU13Esd5rK07mhHMYOw-18" value="&lt;font size=&quot;1&quot; style=&quot;&quot;&gt;&lt;b style=&quot;font-size: 22px;&quot;&gt;FinanÃ§a em dia&amp;nbsp;&lt;/b&gt;&lt;/font&gt;" style="text;html=1;align=center;verticalAlign=middle;resizable=0;points=[];autosize=1;strokeColor=none;fillColor=none;strokeWidth=3;" vertex="1" parent="1">
          <mxGeometry x="80" y="240" width="190" height="40" as="geometry" />
        </mxCell>
        <mxCell id="TkU13Esd5rK07mhHMYOw-19" value="&lt;font style=&quot;font-size: 20px;&quot;&gt;O software para de ajudar&lt;/font&gt;&lt;div style=&quot;font-size: 20px;&quot;&gt;&lt;font style=&quot;font-size: 20px;&quot;&gt;do seu financeiro&lt;/font&gt;&lt;/div&gt;" style="text;html=1;align=center;verticalAlign=middle;resizable=0;points=[];autosize=1;strokeColor=none;fillColor=none;" vertex="1" parent="1">
          <mxGeometry x="50" y="280" width="250" height="60" as="geometry" />
        </mxCell>
        <mxCell id="TkU13Esd5rK07mhHMYOw-20" value="" style="rounded=0;whiteSpace=wrap;html=1;fillColor=#647687;strokeColor=#000000;fontColor=#ffffff;strokeWidth=4;" vertex="1" parent="1">
          <mxGeometry x="400" y="40" width="270" height="400" as="geometry" />
        </mxCell>
        <mxCell id="TkU13Esd5rK07mhHMYOw-21" value="&lt;font style=&quot;font-size: 44px;&quot;&gt;&lt;b&gt;Login&lt;/b&gt;&lt;/font&gt;" style="text;html=1;align=center;verticalAlign=middle;resizable=0;points=[];autosize=1;strokeColor=none;fillColor=none;" vertex="1" parent="1">
          <mxGeometry x="465" y="80" width="140" height="70" as="geometry" />
        </mxCell>
        <mxCell id="TkU13Esd5rK07mhHMYOw-23" value="&lt;font style=&quot;font-size: 16px;&quot;&gt;Email:&lt;/font&gt;" style="text;html=1;align=center;verticalAlign=middle;resizable=0;points=[];autosize=1;strokeColor=none;fillColor=none;" vertex="1" parent="1">
          <mxGeometry x="410" y="195" width="70" height="30" as="geometry" />
        </mxCell>
        <mxCell id="TkU13Esd5rK07mhHMYOw-25" value="" style="rounded=1;whiteSpace=wrap;html=1;strokeWidth=2;" vertex="1" parent="1">
          <mxGeometry x="480" y="201.5" width="165" height="22.5" as="geometry" />
        </mxCell>
        <mxCell id="TkU13Esd5rK07mhHMYOw-26" value="&lt;font style=&quot;font-size: 16px;&quot;&gt;Senha:&lt;/font&gt;" style="text;html=1;align=center;verticalAlign=middle;resizable=0;points=[];autosize=1;strokeColor=none;fillColor=none;" vertex="1" parent="1">
          <mxGeometry x="411" y="240" width="70" height="30" as="geometry" />
        </mxCell>
        <mxCell id="TkU13Esd5rK07mhHMYOw-27" value="" style="rounded=1;whiteSpace=wrap;html=1;strokeWidth=2;" vertex="1" parent="1">
          <mxGeometry x="480" y="246.5" width="165" height="22.5" as="geometry" />
        </mxCell>
        <mxCell id="TkU13Esd5rK07mhHMYOw-28" value="&lt;font style=&quot;font-size: 35px;&quot;&gt;Logar&lt;/font&gt;" style="rounded=1;whiteSpace=wrap;html=1;strokeWidth=3;" vertex="1" parent="1">
          <mxGeometry x="455" y="350" width="160" height="50" as="geometry" />
        </mxCell>
        <mxCell id="TkU13Esd5rK07mhHMYOw-29" value="" style="rounded=0;whiteSpace=wrap;html=1;fillColor=#647687;strokeColor=#000000;fontColor=#ffffff;strokeWidth=4;" vertex="1" parent="1">
          <mxGeometry x="40" y="470" width="270" height="400" as="geometry" />
        </mxCell>
        <mxCell id="TkU13Esd5rK07mhHMYOw-30" value="&lt;font style=&quot;font-size: 28px;&quot;&gt;&lt;b&gt;Cadastro&lt;/b&gt;&lt;/font&gt;" style="text;html=1;align=center;verticalAlign=middle;resizable=0;points=[];autosize=1;strokeColor=none;fillColor=none;" vertex="1" parent="1">
          <mxGeometry x="105" y="500" width="140" height="50" as="geometry" />
        </mxCell>
        <mxCell id="TkU13Esd5rK07mhHMYOw-31" value="&lt;font style=&quot;font-size: 20px;&quot;&gt;Nome:&lt;/font&gt;" style="text;html=1;align=center;verticalAlign=middle;resizable=0;points=[];autosize=1;strokeColor=none;fillColor=none;" vertex="1" parent="1">
          <mxGeometry x="50" y="555" width="80" height="40" as="geometry" />
        </mxCell>
        <mxCell id="TkU13Esd5rK07mhHMYOw-32" value="&lt;font style=&quot;font-size: 20px;&quot;&gt;Email:&lt;/font&gt;" style="text;html=1;align=center;verticalAlign=middle;resizable=0;points=[];autosize=1;strokeColor=none;fillColor=none;" vertex="1" parent="1">
          <mxGeometry x="50" y="595" width="80" height="40" as="geometry" />
        </mxCell>
        <mxCell id="TkU13Esd5rK07mhHMYOw-33" value="&lt;font style=&quot;font-size: 20px;&quot;&gt;Senha:&lt;/font&gt;&lt;span style=&quot;color: rgba(0, 0, 0, 0); font-family: monospace; font-size: 0px; text-align: start;&quot;&gt;%3CmxGraphModel%3E%3Croot%3E%3CmxCell%20id%3D%220%22%2F%3E%3CmxCell%20id%3D%221%22%20parent%3D%220%22%2F%3E%3CmxCell%20id%3D%222%22%20value%3D%22%26lt%3Bfont%20style%3D%26quot%3Bfont-size%3A%2020px%3B%26quot%3B%26gt%3BNome%3A%26lt%3B%2Ffont%26gt%3B%22%20style%3D%22text%3Bhtml%3D1%3Balign%3Dcenter%3BverticalAlign%3Dmiddle%3Bresizable%3D0%3Bpoints%3D%5B%5D%3Bautosize%3D1%3BstrokeColor%3Dnone%3BfillColor%3Dnone%3B%22%20vertex%3D%221%22%20parent%3D%221%22%3E%3CmxGeometry%20x%3D%2250%22%20y%3D%22555%22%20width%3D%2280%22%20height%3D%2240%22%20as%3D%22geometry%22%2F%3E%3C%2FmxCell%3E%3C%2Froot%3E%3C%2FmxGraphModel%3E&lt;/span&gt;" style="text;html=1;align=center;verticalAlign=middle;resizable=0;points=[];autosize=1;strokeColor=none;fillColor=none;" vertex="1" parent="1">
          <mxGeometry x="45" y="641.25" width="90" height="40" as="geometry" />
        </mxCell>
        <mxCell id="TkU13Esd5rK07mhHMYOw-34" value="&lt;font style=&quot;font-size: 19px;&quot;&gt;Confirmar&lt;/font&gt;&lt;div style=&quot;font-size: 19px;&quot;&gt;&lt;font style=&quot;font-size: 19px;&quot;&gt;Senha:&lt;/font&gt;&lt;/div&gt;" style="text;html=1;align=center;verticalAlign=middle;resizable=0;points=[];autosize=1;strokeColor=none;fillColor=none;" vertex="1" parent="1">
          <mxGeometry x="35" y="700" width="110" height="60" as="geometry" />
        </mxCell>
        <mxCell id="TkU13Esd5rK07mhHMYOw-35" value="" style="rounded=1;whiteSpace=wrap;html=1;strokeWidth=2;" vertex="1" parent="1">
          <mxGeometry x="130" y="563.75" width="165" height="22.5" as="geometry" />
        </mxCell>
        <mxCell id="TkU13Esd5rK07mhHMYOw-36" value="" style="rounded=1;whiteSpace=wrap;html=1;strokeWidth=2;" vertex="1" parent="1">
          <mxGeometry x="130" y="603.75" width="165" height="22.5" as="geometry" />
        </mxCell>
        <mxCell id="TkU13Esd5rK07mhHMYOw-37" value="" style="rounded=1;whiteSpace=wrap;html=1;strokeWidth=2;" vertex="1" parent="1">
          <mxGeometry x="130" y="650" width="165" height="22.5" as="geometry" />
        </mxCell>
        <mxCell id="TkU13Esd5rK07mhHMYOw-40" value="" style="rounded=1;whiteSpace=wrap;html=1;strokeWidth=2;" vertex="1" parent="1">
          <mxGeometry x="135" y="720" width="165" height="22.5" as="geometry" />
        </mxCell>
        <mxCell id="TkU13Esd5rK07mhHMYOw-41" value="&lt;font style=&quot;font-size: 23px;&quot;&gt;Cadastrar&lt;/font&gt;" style="rounded=1;whiteSpace=wrap;html=1;strokeWidth=3;" vertex="1" parent="1">
          <mxGeometry x="100" y="780" width="150" height="60" as="geometry" />
        </mxCell>
        <mxCell id="TkU13Esd5rK07mhHMYOw-42" value="" style="rounded=0;whiteSpace=wrap;html=1;fillColor=#647687;strokeColor=#000000;fontColor=#ffffff;strokeWidth=4;" vertex="1" parent="1">
          <mxGeometry x="400" y="470" width="270" height="400" as="geometry" />
        </mxCell>
        <mxCell id="TkU13Esd5rK07mhHMYOw-43" value="Esqueceu a senha" style="text;html=1;align=center;verticalAlign=middle;resizable=0;points=[];autosize=1;strokeColor=none;fillColor=none;" vertex="1" parent="1">
          <mxGeometry x="530" y="269" width="120" height="30" as="geometry" />
        </mxCell>
      </root>
    </mxGraphModel>
  </diagram>
</mxfile>
